<svg aria-hidden="true" style="position: absolute; width: 0; height: 0; overflow: hidden;" version="1.1" xmlns="http://www.w3.org/2000/svg" xmlns:xlink="http://www.w3.org/1999/xlink">
<defs>
<symbol id="icon-dropdown" viewBox="0 0 32 32">
<path fill="none" stroke="#fff" style="stroke: var(--color1, #fff)" stroke-linejoin="miter" stroke-linecap="round" stroke-miterlimit="4" stroke-width="2.6667" d="M6.677 12l9.333 9.333 9.333-9.333"></path>
</symbol>
<symbol id="icon-login" viewBox="0 0 30 32">
<path fill="none" stroke="#fff" style="stroke: var(--color1, #fff)" stroke-linejoin="round" stroke-linecap="round" stroke-miterlimit="4" stroke-width="2.5263" d="M18.947 4.632h1.516c2.122 0 3.183 0 3.994 0.413 0.713 0.363 1.293 0.943 1.656 1.656 0.413 0.811 0.413 1.872 0.413 3.994v10.611c0 2.122 0 3.183-0.413 3.994-0.363 0.713-0.943 1.293-1.656 1.656-0.811 0.413-1.872 0.413-3.994 0.413h-1.516M12.632 9.684l6.316 6.316M18.947 16l-6.316 6.316M18.947 16h-15.158"></path>
</symbol>
<symbol id="icon-user" viewBox="0 0 32 32">
<path fill="none" stroke="#498cf4" style="stroke: var(--color2, #498cf4)" stroke-linejoin="round" stroke-linecap="round" stroke-miterlimit="4" stroke-width="1.8824" d="M21.333 24l2.667 2.667 5.333-5.333"></path>
<path fill="none" stroke="#498cf4" style="stroke: var(--color2, #498cf4)" stroke-linejoin="round" stroke-linecap="round" stroke-miterlimit="4" stroke-width="1.8824" d="M16 20.667h-7.31c-2.108 0-3.163 0-3.968 0.41-0.708 0.361-1.284 0.937-1.645 1.645-0.41 0.805-0.41 1.859-0.41 3.968v1.31"></path>
<path fill="none" stroke="#498cf4" style="stroke: var(--color2, #498cf4)" stroke-linejoin="round" stroke-linecap="round" stroke-miterlimit="4" stroke-width="1.8824" d="M13.333 16c3.314 0 6-2.686 6-6s-2.686-6-6-6c-3.314 0-6 2.686-6 6s2.686 6 6 6z"></path>
</symbol>
</defs>
</svg>
